<svg width="178" height="178" viewBox="0 0 178 178" fill="none" xmlns="http://www.w3.org/2000/svg">
<circle cx="89" cy="89" r="89" fill="#232526"/>
<circle cx="88.5" cy="88.5" r="78.3" stroke="#FCFCFC" stroke-width="0.4"/>
<path d="M43.052 102.752C44.976 102.752 46.6573 103.124 48.096 103.87C49.552 104.598 50.67 105.655 51.45 107.042C52.2473 108.411 52.646 110.014 52.646 111.852C52.646 113.689 52.2473 115.284 51.45 116.636C50.67 117.988 49.552 119.028 48.096 119.756C46.6573 120.466 44.976 120.822 43.052 120.822H37.15V102.752H43.052ZM43.052 118.404C45.1667 118.404 46.7873 117.832 47.914 116.688C49.0407 115.544 49.604 113.932 49.604 111.852C49.604 109.754 49.0407 108.116 47.914 106.938C46.7873 105.759 45.1667 105.17 43.052 105.17H40.114V118.404H43.052ZM64.3456 121.004C62.6643 121.004 61.1129 120.614 59.6916 119.834C58.2876 119.036 57.1696 117.936 56.3376 116.532C55.5229 115.11 55.1156 113.516 55.1156 111.748C55.1156 109.98 55.5229 108.394 56.3376 106.99C57.1696 105.586 58.2876 104.494 59.6916 103.714C61.1129 102.916 62.6643 102.518 64.3456 102.518C66.0443 102.518 67.5956 102.916 68.9996 103.714C70.4209 104.494 71.5389 105.586 72.3536 106.99C73.1683 108.394 73.5756 109.98 73.5756 111.748C73.5756 113.516 73.1683 115.11 72.3536 116.532C71.5389 117.936 70.4209 119.036 68.9996 119.834C67.5956 120.614 66.0443 121.004 64.3456 121.004ZM64.3456 118.43C65.5416 118.43 66.6076 118.161 67.5436 117.624C68.4796 117.069 69.2076 116.289 69.7276 115.284C70.2649 114.261 70.5336 113.082 70.5336 111.748C70.5336 110.413 70.2649 109.243 69.7276 108.238C69.2076 107.232 68.4796 106.461 67.5436 105.924C66.6076 105.386 65.5416 105.118 64.3456 105.118C63.1496 105.118 62.0836 105.386 61.1476 105.924C60.2116 106.461 59.4749 107.232 58.9376 108.238C58.4176 109.243 58.1576 110.413 58.1576 111.748C58.1576 113.082 58.4176 114.261 58.9376 115.284C59.4749 116.289 60.2116 117.069 61.1476 117.624C62.0836 118.161 63.1496 118.43 64.3456 118.43ZM91.8583 120.822H88.8943L79.9763 107.328V120.822H77.0123V102.726H79.9763L88.8943 116.194V102.726H91.8583V120.822ZM107.165 117.13H99.5985L98.2985 120.822H95.2045L101.679 102.726H105.111L111.585 120.822H108.465L107.165 117.13ZM106.333 114.712L103.395 106.314L100.431 114.712H106.333ZM126.593 102.752V105.17H121.783V120.822H118.819V105.17H113.983V102.752H126.593ZM133.079 105.144V110.448H139.319V112.866H133.079V118.404H140.099V120.822H130.115V102.726H140.099V105.144H133.079Z" fill="#FCFCFC"/>
<path d="M84.4435 48.1693C82.7943 48.6124 81.4405 49.7118 80.6282 51.2789C79.9555 52.5835 79.9308 53.2235 80.5544 53.527C81.1698 53.8306 81.5636 53.5681 81.9328 52.6245C82.6302 50.8277 84.1809 49.72 86.0024 49.72C86.708 49.72 87.1346 49.8185 87.7746 50.1467C88.2997 50.4092 89.2105 51.2215 89.5715 51.7466C89.8832 52.1979 90.3427 53.125 90.4658 53.5598C90.6135 54.0521 90.8842 54.2819 91.3355 54.2819C91.8114 54.2819 92.0165 54.0685 92.3529 53.2152C93.239 50.9671 94.7979 49.72 96.7096 49.72C98.3916 49.72 99.7618 50.6225 100.566 52.2307C101.091 53.2973 101.239 54.3967 101.017 55.57C100.582 57.8181 99.2039 59.4509 93.7969 64.0948L91.434 66.1378L90.6791 65.4978C90.2689 65.145 89.3089 64.3245 88.5377 63.6763C85.6988 61.2806 84.0578 59.7463 83.2702 58.7371C82.8353 58.1873 82.4989 58.0315 82.0559 58.1791C81.4323 58.3843 81.3257 59.0571 81.8261 59.7134C82.8107 61.0098 84.0907 62.2159 88.2833 65.7522C90.9499 68.0085 91.0729 68.1069 91.4011 68.1069C91.5898 68.1069 91.836 68.0413 91.9426 67.9675C92.3283 67.7049 97.3168 63.3728 98.2685 62.4785C100.246 60.616 101.345 59.2786 102.035 57.892C102.945 56.0623 103.085 54.1178 102.453 52.2225C101.78 50.2205 100.156 48.6616 98.2111 48.1693C97.3332 47.9396 95.9712 47.9478 95.1589 48.1693C94.5107 48.3498 93.7969 48.6862 93.3375 49.0226C92.8206 49.4082 92.0165 50.2533 91.6801 50.7702L91.3437 51.2789L90.9335 50.6882C90.0063 49.3672 88.8002 48.4975 87.389 48.1283C86.6998 47.956 85.1737 47.9724 84.4435 48.1693Z" fill="#C0304F"/>
<path d="M80.2668 55.4549C79.8237 55.9144 80.0617 56.7677 80.6606 56.8825C81.2432 56.9974 81.6862 56.6364 81.6862 56.0539C81.6862 55.5205 81.3908 55.2252 80.8575 55.2252C80.554 55.2252 80.4473 55.2662 80.2668 55.4549Z" fill="#C0304F"/>
<path d="M67.2215 66.4493L67 66.6791V74.4408V82.1943L67.2051 82.3994C67.32 82.5143 67.5251 82.6292 67.6646 82.662C68.083 82.744 72.6859 82.7194 73.1454 82.6292C73.3833 82.5881 73.7115 82.4815 73.8756 82.4076C74.2448 82.2353 74.7945 81.6938 74.9586 81.3492L75.0817 81.0949L75.7791 81.2343C76.1647 81.3164 76.6816 81.4559 76.936 81.5543C77.1903 81.6528 78.5687 82.4322 80.0046 83.2855C81.4322 84.1388 82.9091 84.9593 83.2865 85.1234C85.5346 86.0588 88.1191 86.19 90.5067 85.4844C90.9498 85.3613 105.415 79.0519 107.244 78.1904C107.835 77.9114 108.393 77.3535 108.697 76.7381C108.926 76.2704 108.976 76.0899 108.992 75.4828C109.017 74.9987 108.984 74.6213 108.894 74.3177C108.492 72.9393 107.171 72.0532 105.661 72.1434C105.119 72.1845 104.479 72.3732 101.066 73.5547C98.8838 74.3013 97.0869 74.9167 97.0705 74.9167C97.0623 74.9167 97.0295 74.5967 97.0131 74.1946C96.9803 73.6285 96.9311 73.3824 96.7423 72.9885C96.447 72.365 95.8152 71.7332 95.1834 71.4214L94.6911 71.1835L91.4503 71.1425L88.2094 71.1014L85.7643 69.7148C84.427 68.96 83.0568 68.238 82.7286 68.1231L82.1378 67.9098L78.6344 67.877L75.1309 67.8523L74.8848 67.4093C74.614 66.9334 74.2941 66.6462 73.7279 66.3919C73.3751 66.236 73.1946 66.2196 70.3968 66.2196H67.4431L67.2215 66.4493ZM73.252 68.1477C73.3669 68.2626 73.4818 68.4677 73.5146 68.6072C73.5392 68.7549 73.5638 71.3968 73.5556 74.4982C73.5556 78.6334 73.531 80.2005 73.4572 80.4139C73.2767 80.9472 73.0715 80.9882 70.7168 80.9882H68.641V74.4654V67.9426H70.848H73.0469L73.252 68.1477ZM81.8917 69.6984C82.4004 69.8297 82.5891 69.9281 85.0095 71.2901C86.0925 71.8973 87.1838 72.4962 87.4299 72.6111L87.8812 72.8244L91.081 72.8655C94.2563 72.9065 94.2809 72.9065 94.5927 73.0952C95.0357 73.3742 95.3065 73.8829 95.3065 74.4326C95.3065 75.1874 94.8388 75.77 94.084 75.9833C93.9035 76.0325 92.0902 76.0653 89.4155 76.0653H85.0341L84.7962 76.3033C84.4598 76.6397 84.4598 77.1073 84.7962 77.4766L85.0341 77.7473H89.7437H94.445L94.8963 77.5586C96.0449 77.0745 105.595 73.85 105.874 73.85C106.334 73.85 106.883 74.1618 107.105 74.5474C107.261 74.8182 107.285 74.9741 107.261 75.3843C107.212 76.3607 107.671 76.1064 99.8109 79.5688C90.1949 83.8106 90.3098 83.7614 89.6206 83.9337C87.7335 84.4178 85.7397 84.2783 83.9757 83.5235C83.6475 83.384 82.1871 82.5553 80.7348 81.6856C77.9124 80.0036 77.2806 79.7165 75.8612 79.4867L75.2458 79.3801L75.2212 74.4818L75.2048 69.5835H78.339C80.702 69.5835 81.5799 69.6164 81.8917 69.6984Z" fill="#C0304F"/>
<path d="M70.5031 69.7313C70.0601 70.1907 70.298 71.044 70.8969 71.1589C71.4795 71.2738 71.9225 70.9128 71.9225 70.3302C71.9225 69.7969 71.6272 69.5015 71.0939 69.5015C70.7903 69.5015 70.6836 69.5426 70.5031 69.7313Z" fill="#C0304F"/>
</svg>
